<svg width="1280" height="605" xmlns="http://www.w3.org/2000/svg"><g><path d="M-17,-20L-130,200L-84,111Z" fill="#ffffff" stroke="#ffffff" fill-opacity="1" stroke-opacity="1"/><path d="M-17,-20L-84,111L113,87Z" fill="#ffffff" stroke="#ffffff" fill-opacity="1" stroke-opacity="1"/><path d="M-17,-20L113,87L91,-28Z" fill="#fcfcfc" stroke="#fcfcfc" fill-opacity="1" stroke-opacity="1"/><path d="M-17,-20L91,-28L182,-74Z" fill="#fbfbfb" stroke="#fbfbfb" fill-opacity="1" stroke-opacity="1"/><path d="M91,-28L113,87L182,-74Z" fill="#f8f8f8" stroke="#f8f8f8" fill-opacity="1" stroke-opacity="1"/><path d="M182,-74L113,87L276,25Z" fill="#f4f4f4" stroke="#f4f4f4" fill-opacity="1" stroke-opacity="1"/><path d="M182,-74L276,25L325,-53Z" fill="#eeeeee" stroke="#eeeeee" fill-opacity="1" stroke-opacity="1"/><path d="M182,-74L325,-53L549,-130Z" fill="#e6e6e6" stroke="#e6e6e6" fill-opacity="1" stroke-opacity="1"/><path d="M325,-53L276,25L408,122Z" fill="#e7e7e7" stroke="#e7e7e7" fill-opacity="1" stroke-opacity="1"/><path d="M325,-53L408,122L545,35Z" fill="#dedede" stroke="#dedede" fill-opacity="1" stroke-opacity="1"/><path d="M325,-53L545,35L549,-130Z" fill="#d8d8d8" stroke="#d8d8d8" fill-opacity="1" stroke-opacity="1"/><path d="M549,-130L545,35L632,-51Z" fill="#cacaca" stroke="#cacaca" fill-opacity="1" stroke-opacity="1"/><path d="M549,-130L632,-51L837,-134Z" fill="#bebebe" stroke="#bebebe" fill-opacity="1" stroke-opacity="1"/><path d="M632,-51L545,35L636,44Z" fill="#c6c6c6" stroke="#c6c6c6" fill-opacity="1" stroke-opacity="1"/><path d="M632,-51L636,44L837,-134Z" fill="#bababa" stroke="#bababa" fill-opacity="1" stroke-opacity="1"/><path d="M837,-134L636,44L849,131Z" fill="#b2b2b2" stroke="#b2b2b2" fill-opacity="1" stroke-opacity="1"/><path d="M837,-134L849,131L1000,-34Z" fill="#a2a2a2" stroke="#a2a2a2" fill-opacity="1" stroke-opacity="1"/><path d="M837,-134L1000,-34L1156,-77Z" fill="#929292" stroke="#929292" fill-opacity="1" stroke-opacity="1"/><path d="M837,-134L1156,-77L1412,-126Z" fill="#808080" stroke="#808080" fill-opacity="1" stroke-opacity="1"/><path d="M1000,-34L849,131L992,98Z" fill="#9a9a9a" stroke="#9a9a9a" fill-opacity="1" stroke-opacity="1"/><path d="M1000,-34L992,98L1123,66Z" fill="#8d8d8d" stroke="#8d8d8d" fill-opacity="1" stroke-opacity="1"/><path d="M1000,-34L1123,66L1156,-77Z" fill="#868686" stroke="#868686" fill-opacity="1" stroke-opacity="1"/><path d="M1156,-77L1123,66L1318,44Z" fill="#808080" stroke="#808080" fill-opacity="1" stroke-opacity="1"/><path d="M1156,-77L1318,44L1308,-43Z" fill="#808080" stroke="#808080" fill-opacity="1" stroke-opacity="1"/><path d="M1156,-77L1308,-43L1412,-126Z" fill="#808080" stroke="#808080" fill-opacity="1" stroke-opacity="1"/><path d="M1308,-43L1318,44L1376,34Z" fill="#808080" stroke="#808080" fill-opacity="1" stroke-opacity="1"/><path d="M1308,-43L1376,34L1412,-126Z" fill="#808080" stroke="#808080" fill-opacity="1" stroke-opacity="1"/><path d="M1412,-126L1376,34L1396,230Z" fill="#808080" stroke="#808080" fill-opacity="1" stroke-opacity="1"/><path d="M1412,-126L1396,230L1431,424Z" fill="#767676" stroke="#767676" fill-opacity="1" stroke-opacity="1"/><path d="M-84,111L-130,200L29,181Z" fill="#f9f9f9" stroke="#f9f9f9" fill-opacity="1" stroke-opacity="1"/><path d="M-84,111L29,181L113,87Z" fill="#fefefe" stroke="#fefefe" fill-opacity="1" stroke-opacity="1"/><path d="M113,87L29,181L182,280Z" fill="#efefef" stroke="#efefef" fill-opacity="1" stroke-opacity="1"/><path d="M113,87L182,280L276,25Z" fill="#f4f4f4" stroke="#f4f4f4" fill-opacity="1" stroke-opacity="1"/><path d="M276,25L182,280L382,187Z" fill="#e6e6e6" stroke="#e6e6e6" fill-opacity="1" stroke-opacity="1"/><path d="M276,25L382,187L408,122Z" fill="#e5e5e5" stroke="#e5e5e5" fill-opacity="1" stroke-opacity="1"/><path d="M408,122L382,187L558,224Z" fill="#d2d2d2" stroke="#d2d2d2" fill-opacity="1" stroke-opacity="1"/><path d="M408,122L558,224L545,35Z" fill="#d4d4d4" stroke="#d4d4d4" fill-opacity="1" stroke-opacity="1"/><path d="M545,35L558,224L636,44Z" fill="#c9c9c9" stroke="#c9c9c9" fill-opacity="1" stroke-opacity="1"/><path d="M636,44L558,224L735,211Z" fill="#bcbcbc" stroke="#bcbcbc" fill-opacity="1" stroke-opacity="1"/><path d="M636,44L735,211L849,131Z" fill="#b6b6b6" stroke="#b6b6b6" fill-opacity="1" stroke-opacity="1"/><path d="M849,131L735,211L777,253Z" fill="#a2a2a2" stroke="#a2a2a2" fill-opacity="1" stroke-opacity="1"/><path d="M849,131L777,253L940,237Z" fill="#979797" stroke="#979797" fill-opacity="1" stroke-opacity="1"/><path d="M849,131L940,237L992,98Z" fill="#999999" stroke="#999999" fill-opacity="1" stroke-opacity="1"/><path d="M992,98L940,237L1082,201Z" fill="#878787" stroke="#878787" fill-opacity="1" stroke-opacity="1"/><path d="M992,98L1082,201L1123,66Z" fill="#898989" stroke="#898989" fill-opacity="1" stroke-opacity="1"/><path d="M1123,66L1082,201L1287,247Z" fill="#787878" stroke="#787878" fill-opacity="1" stroke-opacity="1"/><path d="M1123,66L1287,247L1318,44Z" fill="#808080" stroke="#808080" fill-opacity="1" stroke-opacity="1"/><path d="M1318,44L1287,247L1396,230Z" fill="#777777" stroke="#777777" fill-opacity="1" stroke-opacity="1"/><path d="M1318,44L1396,230L1376,34Z" fill="#808080" stroke="#808080" fill-opacity="1" stroke-opacity="1"/><path d="M-130,200L-60,786L-60,389Z" fill="#9b9b9b" stroke="#9b9b9b" fill-opacity="1" stroke-opacity="1"/><path d="M-130,200L-60,389L29,181Z" fill="#dddddd" stroke="#dddddd" fill-opacity="1" stroke-opacity="1"/><path d="M29,181L-60,389L84,373Z" fill="#cacaca" stroke="#cacaca" fill-opacity="1" stroke-opacity="1"/><path d="M29,181L84,373L182,280Z" fill="#d1d1d1" stroke="#d1d1d1" fill-opacity="1" stroke-opacity="1"/><path d="M182,280L84,373L282,431Z" fill="#b2b2b2" stroke="#b2b2b2" fill-opacity="1" stroke-opacity="1"/><path d="M182,280L282,431L382,187Z" fill="#bdbdbd" stroke="#bdbdbd" fill-opacity="1" stroke-opacity="1"/><path d="M382,187L282,431L404,411Z" fill="#a8a8a8" stroke="#a8a8a8" fill-opacity="1" stroke-opacity="1"/><path d="M382,187L404,411L558,224Z" fill="#b4b4b4" stroke="#b4b4b4" fill-opacity="1" stroke-opacity="1"/><path d="M558,224L404,411L565,366Z" fill="#999999" stroke="#999999" fill-opacity="1" stroke-opacity="1"/><path d="M558,224L565,366L735,211Z" fill="#9f9f9f" stroke="#9f9f9f" fill-opacity="1" stroke-opacity="1"/><path d="M735,211L565,366L777,253Z" fill="#939393" stroke="#939393" fill-opacity="1" stroke-opacity="1"/><path d="M777,253L565,366L621,423Z" fill="#828282" stroke="#828282" fill-opacity="1" stroke-opacity="1"/><path d="M777,253L621,423L832,333Z" fill="#7b7b7b" stroke="#7b7b7b" fill-opacity="1" stroke-opacity="1"/><path d="M777,253L832,333L940,237Z" fill="#828282" stroke="#828282" fill-opacity="1" stroke-opacity="1"/><path d="M940,237L832,333L1005,347Z" fill="#6c6c6c" stroke="#6c6c6c" fill-opacity="1" stroke-opacity="1"/><path d="M940,237L1005,347L1082,201Z" fill="#6d6d6d" stroke="#6d6d6d" fill-opacity="1" stroke-opacity="1"/><path d="M1082,201L1005,347L1090,358Z" fill="#595959" stroke="#595959" fill-opacity="1" stroke-opacity="1"/><path d="M1082,201L1090,358L1238,344Z" fill="#505050" stroke="#505050" fill-opacity="1" stroke-opacity="1"/><path d="M1082,201L1238,344L1287,247Z" fill="#5b5b5b" stroke="#5b5b5b" fill-opacity="1" stroke-opacity="1"/><path d="M1287,247L1238,344L1431,424Z" fill="#444444" stroke="#444444" fill-opacity="1" stroke-opacity="1"/><path d="M1287,247L1431,424L1396,230Z" fill="#505050" stroke="#505050" fill-opacity="1" stroke-opacity="1"/><path d="M-60,389L-60,786L-29,529Z" fill="#8c8c8c" stroke="#8c8c8c" fill-opacity="1" stroke-opacity="1"/><path d="M-60,389L-29,529L34,522Z" fill="#959595" stroke="#959595" fill-opacity="1" stroke-opacity="1"/><path d="M-60,389L34,522L84,373Z" fill="#a6a6a6" stroke="#a6a6a6" fill-opacity="1" stroke-opacity="1"/><path d="M84,373L34,522L263,499Z" fill="#929292" stroke="#929292" fill-opacity="1" stroke-opacity="1"/><path d="M84,373L263,499L282,431Z" fill="#979797" stroke="#979797" fill-opacity="1" stroke-opacity="1"/><path d="M282,431L263,499L389,487Z" fill="#808080" stroke="#808080" fill-opacity="1" stroke-opacity="1"/><path d="M282,431L389,487L404,411Z" fill="#868686" stroke="#868686" fill-opacity="1" stroke-opacity="1"/><path d="M404,411L389,487L545,508Z" fill="#737373" stroke="#737373" fill-opacity="1" stroke-opacity="1"/><path d="M404,411L545,508L565,366Z" fill="#7b7b7b" stroke="#7b7b7b" fill-opacity="1" stroke-opacity="1"/><path d="M565,366L545,508L621,423Z" fill="#707070" stroke="#707070" fill-opacity="1" stroke-opacity="1"/><path d="M621,423L545,508L709,545Z" fill="#585858" stroke="#585858" fill-opacity="1" stroke-opacity="1"/><path d="M621,423L709,545L795,489Z" fill="#4f4f4f" stroke="#4f4f4f" fill-opacity="1" stroke-opacity="1"/><path d="M621,423L795,489L832,333Z" fill="#626262" stroke="#626262" fill-opacity="1" stroke-opacity="1"/><path d="M832,333L795,489L987,531Z" fill="#444444" stroke="#444444" fill-opacity="1" stroke-opacity="1"/><path d="M832,333L987,531L1005,347Z" fill="#4c4c4c" stroke="#4c4c4c" fill-opacity="1" stroke-opacity="1"/><path d="M1005,347L987,531L1090,358Z" fill="#3c3c3c" stroke="#3c3c3c" fill-opacity="1" stroke-opacity="1"/><path d="M1090,358L987,531L1139,529Z" fill="#1f1f1f" stroke="#1f1f1f" fill-opacity="1" stroke-opacity="1"/><path d="M1090,358L1139,529L1238,344Z" fill="#2e2e2e" stroke="#2e2e2e" fill-opacity="1" stroke-opacity="1"/><path d="M1238,344L1139,529L1276,498Z" fill="#1c1c1c" stroke="#1c1c1c" fill-opacity="1" stroke-opacity="1"/><path d="M1238,344L1276,498L1431,424Z" fill="#2a2a2a" stroke="#2a2a2a" fill-opacity="1" stroke-opacity="1"/><path d="M1431,424L1276,498L1428,490Z" fill="#161616" stroke="#161616" fill-opacity="1" stroke-opacity="1"/><path d="M-29,529L-60,786L-17,647Z" fill="#838383" stroke="#838383" fill-opacity="1" stroke-opacity="1"/><path d="M-29,529L-17,647L34,522Z" fill="#8c8c8c" stroke="#8c8c8c" fill-opacity="1" stroke-opacity="1"/><path d="M34,522L-17,647L81,678Z" fill="#858585" stroke="#858585" fill-opacity="1" stroke-opacity="1"/><path d="M34,522L81,678L251,655Z" fill="#808080" stroke="#808080" fill-opacity="1" stroke-opacity="1"/><path d="M34,522L251,655L263,499Z" fill="#828282" stroke="#828282" fill-opacity="1" stroke-opacity="1"/><path d="M263,499L251,655L347,672Z" fill="#747474" stroke="#747474" fill-opacity="1" stroke-opacity="1"/><path d="M263,499L347,672L389,487Z" fill="#757575" stroke="#757575" fill-opacity="1" stroke-opacity="1"/><path d="M389,487L347,672L468,620Z" fill="#6a6a6a" stroke="#6a6a6a" fill-opacity="1" stroke-opacity="1"/><path d="M389,487L468,620L545,508Z" fill="#686868" stroke="#686868" fill-opacity="1" stroke-opacity="1"/><path d="M545,508L468,620L688,649Z" fill="#555555" stroke="#555555" fill-opacity="1" stroke-opacity="1"/><path d="M545,508L688,649L709,545Z" fill="#4e4e4e" stroke="#4e4e4e" fill-opacity="1" stroke-opacity="1"/><path d="M709,545L688,649L796,729Z" fill="#3c3c3c" stroke="#3c3c3c" fill-opacity="1" stroke-opacity="1"/><path d="M709,545L796,729L795,489Z" fill="#3d3d3d" stroke="#3d3d3d" fill-opacity="1" stroke-opacity="1"/><path d="M795,489L796,729L998,666Z" fill="#2d2d2d" stroke="#2d2d2d" fill-opacity="1" stroke-opacity="1"/><path d="M795,489L998,666L987,531Z" fill="#2a2a2a" stroke="#2a2a2a" fill-opacity="1" stroke-opacity="1"/><path d="M987,531L998,666L1139,529Z" fill="#181818" stroke="#181818" fill-opacity="1" stroke-opacity="1"/><path d="M1139,529L998,666L1184,707Z" fill="#090909" stroke="#090909" fill-opacity="1" stroke-opacity="1"/><path d="M1139,529L1184,707L1276,498Z" fill="#0b0b0b" stroke="#0b0b0b" fill-opacity="1" stroke-opacity="1"/><path d="M1276,498L1184,707L1258,725Z" fill="#040404" stroke="#040404" fill-opacity="1" stroke-opacity="1"/><path d="M1276,498L1258,725L1395,633Z" fill="#070707" stroke="#070707" fill-opacity="1" stroke-opacity="1"/><path d="M1276,498L1395,633L1428,490Z" fill="#0f0f0f" stroke="#0f0f0f" fill-opacity="1" stroke-opacity="1"/><path d="M1428,490L1395,633L1408,853Z" fill="#030303" stroke="#030303" fill-opacity="1" stroke-opacity="1"/><path d="M-17,647L-60,786L81,678Z" fill="#808080" stroke="#808080" fill-opacity="1" stroke-opacity="1"/><path d="M81,678L-60,786L17,876Z" fill="#7f7f7f" stroke="#7f7f7f" fill-opacity="1" stroke-opacity="1"/><path d="M81,678L17,876L261,869Z" fill="#797979" stroke="#797979" fill-opacity="1" stroke-opacity="1"/><path d="M81,678L261,869L251,655Z" fill="#747474" stroke="#747474" fill-opacity="1" stroke-opacity="1"/><path d="M251,655L261,869L327,850Z" fill="#6d6d6d" stroke="#6d6d6d" fill-opacity="1" stroke-opacity="1"/><path d="M251,655L327,850L347,672Z" fill="#6a6a6a" stroke="#6a6a6a" fill-opacity="1" stroke-opacity="1"/><path d="M347,672L327,850L528,809Z" fill="#616161" stroke="#616161" fill-opacity="1" stroke-opacity="1"/><path d="M347,672L528,809L468,620Z" fill="#5c5c5c" stroke="#5c5c5c" fill-opacity="1" stroke-opacity="1"/><path d="M468,620L528,809L688,649Z" fill="#4c4c4c" stroke="#4c4c4c" fill-opacity="1" stroke-opacity="1"/><path d="M688,649L528,809L666,845Z" fill="#444444" stroke="#444444" fill-opacity="1" stroke-opacity="1"/><path d="M688,649L666,845L796,729Z" fill="#393939" stroke="#393939" fill-opacity="1" stroke-opacity="1"/><path d="M796,729L666,845L832,833Z" fill="#343434" stroke="#343434" fill-opacity="1" stroke-opacity="1"/><path d="M796,729L832,833L946,843Z" fill="#292929" stroke="#292929" fill-opacity="1" stroke-opacity="1"/><path d="M796,729L946,843L998,666Z" fill="#202020" stroke="#202020" fill-opacity="1" stroke-opacity="1"/><path d="M998,666L946,843L1139,847Z" fill="#0f0f0f" stroke="#0f0f0f" fill-opacity="1" stroke-opacity="1"/><path d="M998,666L1139,847L1184,707Z" fill="#040404" stroke="#040404" fill-opacity="1" stroke-opacity="1"/><path d="M1184,707L1139,847L1258,725Z" fill="#000000" stroke="#000000" fill-opacity="1" stroke-opacity="1"/><path d="M1258,725L1139,847L1243,875Z" fill="#000000" stroke="#000000" fill-opacity="1" stroke-opacity="1"/><path d="M1258,725L1243,875L1408,853Z" fill="#000000" stroke="#000000" fill-opacity="1" stroke-opacity="1"/><path d="M1258,725L1408,853L1395,633Z" fill="#000000" stroke="#000000" fill-opacity="1" stroke-opacity="1"/><path d="M17,876L1243,875L261,869Z" fill="#545454" stroke="#545454" fill-opacity="1" stroke-opacity="1"/><path d="M261,869L1243,875L666,845Z" fill="#383838" stroke="#383838" fill-opacity="1" stroke-opacity="1"/><path d="M261,869L666,845L327,850Z" fill="#606060" stroke="#606060" fill-opacity="1" stroke-opacity="1"/><path d="M327,850L666,845L528,809Z" fill="#545454" stroke="#545454" fill-opacity="1" stroke-opacity="1"/><path d="M666,845L1243,875L946,843Z" fill="#1a1a1a" stroke="#1a1a1a" fill-opacity="1" stroke-opacity="1"/><path d="M666,845L946,843L832,833Z" fill="#2e2e2e" stroke="#2e2e2e" fill-opacity="1" stroke-opacity="1"/><path d="M946,843L1243,875L1139,847Z" fill="#040404" stroke="#040404" fill-opacity="1" stroke-opacity="1"/></g></svg>